/* XPM */
static char *_537ae6a7a324c45cc3ebe1224afebe9a4DlGAH1BrAIeZi0[] = {
/* columns rows colors chars-per-pixel */
"32 32 8 1 ",
"  c None",
". c #000004",
"X c #140F21",
"o c #8A0704",
"O c #B3270D",
"+ c #E04517",
"@ c #FF7813",
"# c #FFAC0F",
/* pixels */
"                                ",
"                                ",
"                                ",
"           ....XXXXXXX          ",
"        ...+@@######@+XXX       ",
"       .@@@@+OOOOOOO+@@##X      ",
"      .@@+OOO+++++++OOO+@#X     ",
"     .@@OO++++@@@@+++++OO@#X    ",
"     .@@O++@@@@@@@@@@+++O@#X    ",
"     .@@@++++@@@@@@+++++@@@X    ",
"     .O@@@@####@+++++@@@@#+X    ",
"     .oO@#@@@@@#@+@@@@@#@+OXX   ",
"     .oo@@@OOO@@@++@@++OOOO@#X  ",
"      .@@OO++++@#++OOOOOOOO+@#X ",
"     .@@O+++@++@#++OOOOOO++OO@#X",
"    .@@O+++@++@@+++oo+@@@+++O@#X",
"   .@@O++@@@+@@#+++oo@@+++++@@@X",
"  .@@O++@@@++@@+O+Oo+++++@@@@#+X",
" .@@O+++@@++@#+OOoO++@@@@@@#@++X",
" .@@O++@@++@#+OOOoOO+@##@++O+++X",
".@@O++@+++@#+OOOooooooOOOOOO++X ",
".@@O++++@@@+OOOoooooooOOOOOO+X  ",
".@@@O++@@#+OOO..ooooooOOOXXXX   ",
".@@@@@@@#+OOO.  ......XXX       ",
" .@@@@#+OOOO.                   ",
"  .oooooOOO.                    ",
"   .ooooo..                     ",
"    .....                       ",
"                                ",
"                                ",
"                                ",
"                                "
};
