/* XPM */
static char *bab575c236a94985a7da56599d5486ecHLxiGxlvVw19LFCQ[] = {
/* columns rows colors chars-per-pixel */
"32 32 13 1 ",
"  c None",
". c #000004",
"X c #3C000D",
"o c #140F21",
"O c #610108",
"+ c #601B1B",
"@ c #8A0704",
"# c #B3270D",
"$ c #87362C",
"% c #B1513D",
"& c #E04517",
"* c #D0734C",
"= c #F4955C",
/* pixels */
"                oooooo          ",
"              ..%*====ooo       ",
"             .@====###%==oo     ",
"            .@%=##*#&&###==o    ",
"           .X@=##&#*#&&&##*=o   ",
"           .O@=#&&&#*#&&&#=*=o  ",
"           .O@=*#&&#*===*=##=o  ",
"          .XO@==#&&&#=$%=#&#==o ",
"          .XO@==#&&&#=+$%=&&#=o ",
"          .OXO@=*#&&#*=+$=&&#%o ",
"          .O@O@==###*##===#&&#=o",
"         .XO@OO@===%*#&##**#&#=o",
"         .XOO@#@=*%=#&&&&#=*##=o",
"         .OXOO&#@=*=#&&&&&#====o",
"         .OOO@###@===##&&&##===o",
"        .OOOO@@&##@====##&&#%=%o",
"        .@OO@O@#&##@@===*##===o ",
"        .O@&@@O@@&#&#@@======@o ",
"        .OO@&@##@@&#@&#@@@@@@o  ",
"       .XO@O##@###@@#@@&&#@Oo   ",
"       .XO#@###@#@#####@Oooo    ",
"       .OX@##@&###@#@oooo       ",
"  ...  .X@@&##@&#oooo           ",
" .+==..+XX@@&....               ",
" .%=%.%*%....                   ",
" .+%.%*=.                       ",
"  .+%*=.                        ",
"   .*=.                         ",
"   .*==o                        ",
"   .%==o                        ",
"    ooo                         ",
"                                "
};
