/* XPM */
static char *_24366d8e48d4c76c962d81cb7d41f9arfoZCZ6D4Hs6Htb4[] = {
/* columns rows colors chars-per-pixel */
"32 32 4 1 ",
"  c #5A5A59",
". c #696967",
"X c #494949",
"o c white",
/* pixels */
" ...   X.      X ..   ..  .    X",
".       X.     X.        XX.   X",
".        X.    X.         XX. XX",
".        X.    X.     .X   XXXXX",
"    .     XX.  X.           XXXX",
"            XXXX. .XX       XXXX",
"               X. .XX     XXXXXX",
"          X    X         XXXXXXX",
".              X        XXXXX. X",
".              X       XXXXX. XX",
".    .         X.      XXXXX. XX",
".              X.     XXX.XXXXXX",
"     XX        X    XXXX.  XXXXX",
".    XX        X.  XXXX.   XXXXX",
".              X.  XXX.    XXXXX",
"XXXXXXXXXXXXXXXXXXXXXXXXXXXXXXXX",
"..... ..  .    X..........X.   X",
".              X.         X.   X",
".              X.         X.   X",
".              X.          XX.XX",
".              X.   ..       XXX",
".        .    XX.   ..    .   XX",
"   XXXX      XXX               X",
"XXX  X XX    XXX.              X",
"     X   XXXX XX.           X  X",
".  X  X        X       XXX     X",
"   XX X        X       XXX     X",
"   XX  X ..    X               X",
"       X ...   X.              X",
"        X      X    XXX     XX X",
"        X      X   XXXXX  XXXX X",
"XXXXXXXXXXXXXXXXXXXXXXXXXXXXXXXX"
};
