/* XPM */
static char *_08ccfb293b84a3db193e556b97337e1aMfsUTF8PWFOJUv2[] = {
/* columns rows colors chars-per-pixel */
"32 32 18 1 ",
"  c None",
". c #222222",
"X c #323234",
"o c #583C3C",
"O c #534721",
"+ c #444444",
"@ c #705654",
"# c #646466",
"$ c #876E6A",
"% c #978300",
"& c #B19D00",
"* c #D7906E",
"= c #9F8781",
"- c #AAAAAD",
"; c #EEBE93",
": c #CACACC",
"> c gray91",
", c white",
/* pixels */
"             .......            ",
"           ..+#####+..          ",
"          .++#######++.         ",
"         .++#########++.        ",
"        .++###########++.       ",
"       .++#############++.      ",
"       .+#++:::::::::++#+.      ",
"      .+++::,,,,,,,,,::+++.     ",
"      .++:,,,,,,,,,,,,,:++.     ",
"      .+:>,,>>>>>>>>>,,>:+.     ",
"      .->,>>:::::::::>>,>-.     ",
"      ->>>::*********::>>>-     ",
"     -:........;;;........:-    ",
"     -::..++##+...+##++..::-    ",
"     -::-..+++..;..+++..-::-    ",
"      --@*.....;;;.....*@--     ",
"       o@@;;;@@$$$@@;;;@@o      ",
"       o@$@;@=======@;@$@o      ",
"       .o@$o=$@ooo@$=o$@o.      ",
"      .+#o@@oo*****oo@@o#+.     ",
"     .+##+o@o+OOOOO+o@o+##+.    ",
"     .+##.+o+##...##+o+.##+.    ",
"    -,,>:.++####+####++.:>,,-   ",
"    -,,,>XX+###...###+XX>,,,-   ",
"     .XX-XXX+X%&&&%X+XXX-XX.    ",
"     .XX..+X+X%%%%%X+X+..XX.    ",
"      .. ->+#########+>- ..     ",
"         ->>,,,,,,,,,>>-        ",
"          -->>>>>>>>>--         ",
"          .++++...++++.         ",
"           .XXX. .XXX.          ",
"            ...   ...           "
};
